<svg viewBox="0 0 540 540" xmlns="http://www.w3.org/2000/svg">
   <style>
      :root { --bg: #00274c; --fg: #ffcb05; }
      @media (prefers-color-scheme: light) { :root { --bg: #ffcb05; --fg: #00274c; } }
   </style>
   <circle cx="270" cy="270" r="265" fill="var(--bg)" stroke="var(--fg)" stroke-width="10" />
   <g fill="var(--fg)">
      <path stroke="var(--fg)" d="M337.066 137.791c-.944 3.588.996 7.684 4.37 9.233-4.72.815-9.751-.43-13.505-3.348-.856 2.127.363 4.655 2.303 5.87 1.939 1.215 4.388 1.35 6.673 1.06-3.59 4.562-10.632 6.017-15.704 3.243-.04 2.335 1.52 4.452 3.482 5.728 1.96 1.276 4.286 1.863 6.565 2.427-5.268 1.308-10.107 2.57-14.004-1.139 5.928 5.784 8.507 4.21 12.952 6.801-.507.528-6.547-.954-7.053-.428-2.808-.002-5.759.694-8.281-.509 1.398 4.707 10.409 8.494 20.387 4.155-7.3 4.62-21.654 6.123-26.58 2.843-.347 2.82 1.913 5.439 4.598 6.398 2.683.958 5.661.612 8.47.052-2.285 3.42-6.705 5.042-10.81 4.729-4.105-.312-7.908-2.304-11.129-4.828l10.616-30.74zM356.676 145.302a25.896 25.896 0 01-9.279 10.546c5.63.734 11.013 3.154 15.268 6.86a38.416 38.416 0 00-12.658.059c5.008 1.344 9.59 4.174 13.005 8.036a42.717 42.717 0 01-9.983-1.375c4.419 2.339 8.044 6.107 10.196 10.594-2.419-3.666-6.542-6.166-10.944-6.635 5.596 1.842 8.681 8.946 6.205 14.29.35-3.81-2.186-7.417-5.471-9.385-3.287-1.97-7.208-2.59-11.039-2.965 6.712 3.49 11.821 9.725 14.15 16.886-.474-2.497-2.111-4.65-4.097-6.245-1.984-1.599-4.313-2.71-6.62-3.804.956.386 1.663 1.198 2.295 2.009 1.559 1.997 2.92 4.195 3.59 6.636s.6 5.158-.594 7.409l3.624.419 17.124-24.372z" stroke-width="1.3333" />
      <path d="M357.4 214.458c4.63 2.677 14.921 15.2 16.5 20.286 2.06 6.652 2.706 16.706.604 18.67-1.5 1.4-3.896-5.4-5.556-6.95-1.758-1.64-5.983-6.99-5.544-9.021 2.405-11.11-2.803-14.387-6.004-22.985M324.3 236.628c2.377 5.583 4.576 8.908 10.134 11.422 2.895-5.98 6.739-9.989 8.744-13.486.298-.519-7.8-.075-11.866-3.555-5.183-4.435-4.99-18.634-4.99-18.634s-3.494 9.528-3.742 11.432c-.568 4.333.012 8.808 1.72 12.821M332.9 253.688c2.85-.167.512 5.303.245 6.926-.249 1.515-.5 12.538-3.8 8.071-.356-.48-8.723-.159-14.065-7.919-4.849-7.046-6.089-21-4.417-23.642.676 3.376 3.744 10.383 9.152 14.364 3.968 2.92 9.128 2.42 12.885 2.2M330 274.338c2.779-.66 1.441 5.124 1.467 6.766.021 1.534 1.722 12.414-2.322 8.596-.434-.409-8.626 1.362-15.265-5.338-6.025-6.083-10.64-20.552-9.46-23.44 1.265 3.203 6.452 10.523 12.488 13.495 4.428 2.18 9.425.79 13.092-.079M295 355.438c-2.961 4.473-16.162 14.146-21.374 15.494-6.816 1.764-16.976 1.982-18.832-.185-1.322-1.544 5.663-3.633 7.317-5.213 1.752-1.674 7.382-5.633 9.403-5.113 11.046 2.85 14.645-2.172 23.486-4.983M269.8 326.388c-5.619 2.467-8.961 4.71-11.474 10.273 6.038 2.756 10.094 6.492 13.627 8.415.523.284.046-7.743 3.539-11.843 4.45-5.226 13.42-6.466 13.42-6.466s-4.275-2.126-6.195-2.336c-4.37-.478-8.878.184-12.917 1.957M244.6 321.098c-3.98 4.723-5.864 9.008-4.423 9.645 2.727 1.21 7.919 2.599 10.568 2.187.503-.079 3.695-17.312 21.084-23.757 6.153-2.28-18.365 1.408-27.229 11.925M233.3 327.608c.656 2.75-5.17 1.492-6.825 1.536-1.545.043-12.519 1.863-8.657-2.195.414-.437-1.344-8.542 5.432-15.21 6.15-6.052 20.752-10.809 23.658-9.673-3.232 1.293-10.628 6.53-13.643 12.554-2.214 4.419-.829 9.36.035 12.988" />
      <path d="M489 272.298c-5.887-22.346 8.25-47.787 4.107-70.768-3.074-17.04-26.868-44.837-40.155-52.588 8.76.328 17.742 2.018 24.691 7.716 10.44 8.556 25.713 37.627 26.12 52.816.407 15.188-2.005 30.578-1.254 45.724 1.184 23.873 10.253 45.978 22.747 64.244-11.3-16.645-30.857-26.649-36.256-47.144m-25.542 93.058c1.82 14.491 6.565 28.928 3.57 43.523-2.851 13.885-12.556 25.443-23.736 31.921-11.181 6.479-23.766 8.62-35.962 9 12.765-8.746 26.46-18.698 32.018-34.472 3.176-9.015 3.233-18.796 4.066-28.318 1.892-21.625 9.043-44.607 24.688-57.679-3.659 13.843-6.395 22.094-4.644 36.025m-129.774 135.05c-9.01-19.693-29.885-30.585-49.532-25.845-12.308 2.97-23.456 11.256-35.573 15.389-14.933 5.094-31.14 3.498-44.39-4.368 7.34.488 7.877-1.868 15.218-1.38 7.817.519 16.291.845 23.08-4.27 3.68-2.772 6.455-6.872 9.448-10.608 13.121-16.385 33.977-26.773 51.042-19.173 8.61 3.833 15.306 11.754 20.084 20.783 4.779 9.027 7.607 19.387 10.623 29.472m-224.101-26.913c-2.819-2.19-5.576-4.825-6.892-8.472-1.135-3.146-.439-5.968-1.508-9.146-3.601-10.721-18.84-13.733-20.551-25.098-.52-3.438.364-6.965 1.458-10.236 4.404-13.164 13.67-10.657 23.912-18.238-6.366 10.162-13.073 8.149-13.761 20.649-.108 1.95-.04 4.025.854 5.663.707 1.296 1.848 2.171 2.983 2.948 6.009 4.114 13.31 7.14 16.409 14.424 1.968 4.621 1.806 10.14 3.465 14.925 2.001 5.77 6.51 9.937 11.432 12.333 4.925 2.395 9.634 2.081 14.935 2.908-9.705 7.157-23.286 4.69-32.736-2.66m-45.575-97.084c.545-7.056-.25-14.332-3.325-19.934-2.714-4.943-8.032-8.567-12.937-14.537-4.164-5.067-6.93-13.43-3.495-20.033-1.03 4.557 1.084 7.942 3.779 10.886 6.254 6.835 14.873 10.76 19.197 19.616 3.595 7.366 3.515 17.043 1.42 25.814-2.096 8.771-4.879 11.089-8.756 19.066 1.78-6.877 3.572-13.822 4.117-20.878m23.694-77c1.901-1.01 3.93-1.606 5.867-2.51 4.169-1.944 8.531-5.659 10.543-10.164-2.089 4.281-1.809 9.738-4.777 13.674-3.393 4.503-9.237 4.768-13.63 7.873-1.74 1.232-3.239 2.91-4.513 4.76a28.68 28.68 0 00-3.538 7.095c-1.03-8.136 3.348-17.17 10.048-20.728m7.64 70.733c2.132-1.904 3.726-4.592 5.278-7.225 3.156-5.358 6.37-10.852 7.992-17.052-1.084 5.914-2.232 13.035-4.288 18.643-2.054 5.608-5.049 10.915-9.11 14.55-2.501 2.24-5.615 3.836-8.416 3.005-1.724-.51-3.141-1.878-4.427-3.317-2.489-2.787-4.11-7.81-2.393-11.814 2.825 6.134 10.336 7.703 15.364 3.21M320.67 134.028c-2.991 3.116-10.466 4.739-13.335 1.905 6.003-.273 8.165-5.557 10.79-13.302 1.025-3.023 3.462-18.433 4.21-22.415.352 2.332 6.69 17.669 6.737 20.251.103 5.848-7.558 12.682-8.402 13.561m214.1 150.516c5.12-77.304-25.041-147.103-52.796-173.915-6.206-5.996-9.575-14.553-55.351-55.776-3.741 2.212-10.655 8.453-14.75 8.922-.294.035-.606.059-.854-.102-.457-.296-.476-1.042-.441-1.664.093-1.692.195-3.432.823-5.007.625-1.572-.251-.987 1.216-1.088-8.934-1.4-16.56 4.621-18.613 15.004-1.3.644-2.768-.472-3.182-1.964-.41-1.49-.037-3.17.471-4.692 1.615-4.844 4.619-9.147 8.403-12.03a343.644 343.644 0 00-20.89 13.987c-1.44 1.043-3.083 2.365-3.9 3.996 1.327-4.806 3.735-9.29 6.93-12.844-9.177 2.562-18.462 5.17-26.969 10.196-8.507 5.026-16.29 12.806-20.027 22.92-.155-4.716.938-11.833.03-16.38-.202-1.01-10-10.204-18.614 5.936-5.622 10.538-.3 19.715-.3 19.715s-5.574 11.84-5.904 12.673c-.658 1.671-1.165-12.554-1.165-12.554s-10 9.71-12.254 15.973c-3.305 9.184-2.259 22.71-.63 33.884 2.052 14.085-6.033 18.43-7.953 26.72-.293 1.265 5.574 7.849 13.165 4.028 7.312-3.682 14.603-11.352 17.853-19.11 3.4-8.118 5.91-14.014 11.945-19.837 6.033-5.824 19.93-6.072 19.93-6.072s11.625 19.715 10.888 31.918c-.736 12.202-6.388 24.262-14.99 31.985-.657 5.234 17.967-.825 19.202-2.029 6.112-5.97 7.075-14.183 10.61-21.274 1.291-2.585 3.864-17.842 2.934-22.557 1.593-1.426 2.088 1.59 4.097 1.483 1.233-.063 3.652-3.988 4.235-2.777 1.115 2.314-1.026 4.6-.771 6.91 8.749-4.59 16.309-12.512 21.143-22.149-2.16 8.066-6.58 15.97-12.009 21.815 7.55.515 15.492-4.042 19.974-11.463.451 8.619-2.629 17.661-8.16 23.956-5.531 6.293-13.404 9.714-20.853 9.06 7.495 2.73 16.068.591 23.383-3.763 7.312-4.356 13.609-10.759 19.813-17.09 1.102 16.98-12.328 30.125-26.269 36.515 6.679-2.184 16.31.08 22.989-2.104-2.63 8.915-8.917 16.531-16.521 20.012-7.604 3.48-15.61 8.926-21.765 1.003-1.053 2.528 2.613 6.773 6.899 8.579 5.505 2.322 11.973 1.042 17.634-.816 5.785-1.899 11.386-4.619 16.746-7.926 0 0 22.772-7.44 16.284-1.997-58.688 49.238 12.309 49.238-57.893 54.29-15.02 1.083-23.096-21.723-34.626-28.33-13.41-7.682-23.35 43.386-11.536 52.056 9.332 6.846 25.927 16.62 37.18 17.923 13.79 1.596 43.75 5.547 57.015-.533-4.936 9.534-13.424 16.687-22.663 19.1-9.243 2.413-19.077.045-26.264-6.326 7.696 15.298 23.164 24.594 38.95 23.405-6.477 7.266-13.024 12.258-21.694 14.285-8.064 1.885-12.652.336-18.141-6.172-5.49-6.51-17.381-24.963-15.792-17.629.772 3.55 6.961 22.982 8.73 25.957 5.146 8.66 15.498 10.382 24.77 11.412-9.082 4.498-19.556 1.895-27.268-4.236S364.1 352.619 359.43 343.22c-1.627 23.654 31.627 56.096 32.9 56.25-9.455 2.609-19.592.253-27.77-5.155-9.763-6.457-17.08-16.765-23.118-27.706-2.504 12.232-.498 25.274 5.408 35.176 5.904 9.903 15.626 16.52 26.218 17.845-13.193-.345-27.208-4.874-36.826-14.64-9.618-9.762-13.53-28.01-5.731-40.929-13.339 8.866-22.66 25.805-23.721 43.099-.415 6.762.403 13.676 3.233 19.37 2.832 5.692 7.86 10.016 13.657 10.544-17.92 5.348-93.04-22.3-87.936-52.212 1.404-8.237 28.787-26.753 28.547-30.78-.636-10.674-34.814-26.195-46.558-15.039-4.275-1.943-28.39 44.57-28.648 52.872-.735 23.57 16.073 14.337 9.249 37.44-2.737 9.267-76.277 21.393-92.095-48.649-.604-7.424 20.02-15.157 21.389-26.855-4.42 7.033-11.25 13.44-17.38 13.855 12.921-19.169 22.262-28.779 22.378-52.293.003-.456.106-9.244.499-9.321-3.448 8.201-6.016 25.826-13.305 29.263 2.876-5.233 3.985-30.73 1.72-30.378-2.059 10.445-19.897 53.922-29.767 43.94-5.311-9.603-.422-22.384 6.238-29.558 6.66-7.174 11.061-14.658 13.781-24.536 1.627-5.908 1.615-9.337.965-15.325-.962-8.913-2.8-7.62-14.933-20.686-.136 5.382 13.61 18.369 1.86 19.074-.742-8.963-6.317-7.46-6.697-15.792-1.744 5.277 1.152 15.437-2.228 19.61-3.378 4.176-8.75 6.779-13.091 4.758.472-11.83-3.384-12.98 1.698-23.616 6.796-14.215 19.148-22.431 11.663-38.853-1.375-3.012-6.71-8.05-14.805-14.975 6.1 17.548 7.823 17.325 5.74 25.717s-6.271 16.034-13.716 16.449c2.218-3.868-.492-8.445-1.979-12.493-3.462-9.436.208-20.65 3.847-30.535-4.92 10.482-9.557 21.62-9.91 33.23-.18 6.003.8 11.951.153 17.946-.648 5.993.277 10.64-4.719 12.687 1.86-5.598-.024-9.64-.5-15.443-.477-5.803-4.129-11.473-9.208-11.519 3.459 2.403 3.395 8.18 2.95 12.977-1.192 12.859 4.2 12.77 3.006 25.628-4.716 2.084-10.36-.463-12.314-5.555-1.953-5.09-1.257-16.403-1.257-16.403-3.438 10.905-1.272 19.638 4.022 28.824 3.67 6.367 20.709 7.985 18.69 15.661-6.478-1.177-14.25-1.858-19.166-6.621 4.108 5.013 8.756 8.784 10.237 15.586-13.525 10.607-33.798-11.886-28.394-26.6-3.882 6.807-4.867 16.654-3.623 24.77 1.243 8.116 8.714 12.483 13.96 18.81 2.042 2.46 4.448 4.573 6.007 7.48 1.557 2.906 2.072 6.987.203 9.909-.986 1.538-2.502 2.545-4.066 3.093-5.622 1.965-11.542-1.893-14.251-7.57-2.708-5.675-2.29-13.362-1.541-20.018-4.825 6.105-5.744 16.1-3.165 23.324 2.846 26.821 20.029 47.338 31.382 71.724 41.159 53.134 80.725 82.947 135.454 99.35 57.139 17.123 83.413 21.55 147.41 9.885 49.616-9.045 118.644-46.233 163.97-120.837 35.502-58.436 37.357-94.263 39.322-123.933" />
   </g>
</svg>