<?xml version="1.0" encoding="UTF-8"?>
<!-- Created with Inkscape (http://www.inkscape.org/) -->
<svg width="540" height="540" version="1.1" viewBox="0 0 540 540" xmlns="http://www.w3.org/2000/svg" xmlns:xlink="http://www.w3.org/1999/xlink">
 <defs>
  <clipPath id="clipPath548">
   <path transform="translate(-273.33 -316.44)" d="m0 500h500v-500h-500z"/>
  </clipPath>
  <clipPath id="clipPath550">
   <path transform="translate(-311.47 -302.84)" d="m0 500h500v-500h-500z"/>
  </clipPath>
  <clipPath id="clipPath552">
   <path transform="translate(-415.24 -247.28)" d="m0 500h500v-500h-500z"/>
  </clipPath>
  <clipPath id="clipPath554">
   <path transform="translate(-316.5 -290.66)" d="m0 500h500v-500h-500z"/>
  </clipPath>
  <clipPath id="clipPath556">
   <path transform="translate(-295.95 -245.75)" d="m0 500h500v-500h-500z"/>
  </clipPath>
  <clipPath id="clipPath558">
   <path transform="translate(-291.68 -274.03)" d="m0 500h500v-500h-500z"/>
  </clipPath>
  <clipPath id="clipPath560">
   <path transform="translate(-231.89 -210.68)" d="m0 500h500v-500h-500z"/>
  </clipPath>
  <clipPath id="clipPath562">
   <path transform="translate(-250.84 -206.71)" d="m0 500h500v-500h-500z"/>
  </clipPath>
  <clipPath id="clipPath564">
   <path transform="translate(-298.12 -261.23)" d="m0 500h500v-500h-500z"/>
  </clipPath>
  <clipPath id="clipPath566">
   <path transform="translate(-223.46 -205.79)" d="m0 500h500v-500h-500z"/>
  </clipPath>
  <clipPath id="clipPath568">
   <path transform="translate(-269.69 -184.92)" d="m0 500h500v-500h-500z"/>
  </clipPath>
 </defs>
 <circle transform="translate(-8290.3 -64.912)" cx="8560.3" cy="334.91" r="266.61" fill="#ffcb05" stroke="#00274c" stroke-width="6.7712"/>
 <g transform="translate(-8290.3 -64.912)">
  <g fill="#00274c" stroke="#00274c">
   <path transform="matrix(1.3333 0 0 -1.3333 8590.1 244.99)" d="m27.95 31.716c-0.708-2.691 0.747-5.763 3.278-6.925-3.541-0.611-7.314 0.323-10.129 2.511-0.642-1.595 0.272-3.491 1.727-4.403 1.454-0.911 3.291-1.012 5.005-0.795-2.692-3.421-7.974-4.512-11.778-2.432-0.03-1.751 1.14-3.339 2.611-4.296 1.47-0.957 3.215-1.397 4.924-1.82-3.951-0.981-7.58-1.927-10.503 0.854 4.446-4.338 6.38-3.157 9.714-5.101-0.38-0.396-4.91 0.716-5.29 0.321-2.106 2e-3 -4.319-0.52-6.211 0.382 1.049-3.53 7.807-6.371 15.291-3.116-5.475-3.465-16.241-4.593-19.936-2.133-0.26-2.115 1.435-4.079 3.449-4.798 2.012-0.719 4.246-0.459 6.352-0.039-1.713-2.566-5.028-3.782-8.107-3.547-3.079 0.234-5.931 1.728-8.347 3.621l7.9623 23.055z" clip-path="url(#clipPath548)" stroke-width=".99975"/>
   <path transform="matrix(1.3333 0 0 -1.3333 8641 263.13)" d="m4.482 39.688c-1.524-3.202-3.964-5.975-6.959-7.91 4.223-0.55 8.26-2.365 11.451-5.145-3.133 0.511-6.357 0.495-9.494-0.044 3.756-1.008 7.193-3.131 9.754-6.027-2.527 0.047-5.047 0.394-7.487 1.031 3.314-1.754 6.033-4.58 7.647-7.946-1.814 2.75-4.907 4.625-8.208 4.977 4.197-1.382 6.511-6.71 4.654-10.718 0.262 2.857-1.64 5.563-4.104 7.039-2.465 1.478-5.406 1.943-8.279 2.224 5.034-2.618 8.866-7.294 10.612-12.665-0.355 1.873-1.583 3.487-3.072 4.684-1.488 1.199-3.235 2.032-4.966 2.853 0.718-0.29 1.248-0.899 1.722-1.507 1.169-1.498 2.19-3.146 2.693-4.977s0.449-3.869-0.446-5.557l2.7184-0.31405 12.843 18.279z" clip-path="url(#clipPath550)"/>
  </g>
  <g fill="#00274c">
   <path transform="matrix(1.3333 0 0 -1.3333 8647.7 279.37)" d="m0 0c3.472-2.008 11.191-11.4 12.375-15.215 1.546-4.989 2.03-12.53 0.453-14.003-1.124-1.05-2.922 4.051-4.167 5.213-1.318 1.23-4.487 5.242-4.158 6.766 1.804 8.333-2.102 10.79-4.503 17.239" clip-path="url(#clipPath554)"/>
   <path transform="matrix(1.3333 0 0 -1.3333 8614.6 301.54)" d="m0 0c1.783-4.187 3.432-6.681 7.601-8.567 2.171 4.485 5.054 7.492 6.558 10.115 0.223 0.389-5.851 0.056-8.9 2.666-3.887 3.327-3.743 13.976-3.743 13.976s-2.62-7.146-2.806-8.574c-0.426-3.25 9e-3 -6.606 1.29-9.616" clip-path="url(#clipPath558)"/>
   <path transform="matrix(1.3333 0 0 -1.3333 8623.2 318.6)" d="m0 0c2.137 0.125 0.384-3.977 0.184-5.195-0.187-1.136-0.375-9.403-2.851-6.053-0.266 0.36-6.542 0.119-10.548 5.939-3.637 5.285-4.567 15.751-3.313 17.732 0.507-2.532 2.808-7.787 6.864-10.773 2.976-2.19 6.846-1.815 9.664-1.65" clip-path="url(#clipPath564)"/>
   <path transform="matrix(1.3333 0 0 -1.3333 8620.3 339.25)" d="m0 0c2.084 0.495 1.081-3.843 1.1-5.075 0.016-1.15 1.292-9.31-1.741-6.447-0.326 0.307-6.47-1.021-11.449 4.004-4.519 4.562-7.98 15.414-7.096 17.58 0.949-2.402 4.84-7.892 9.367-10.121 3.321-1.635 7.069-0.593 9.819 0.059" clip-path="url(#clipPath556)"/>
   <path transform="matrix(1.3333 0 0 -1.3333 8585.3 420.35)" d="m0 0c-2.221-3.355-12.122-10.61-16.031-11.621-5.112-1.323-12.732-1.486-14.124 0.139-0.992 1.158 4.247 2.725 5.488 3.91 1.314 1.255 5.536 4.225 7.052 3.835 8.285-2.138 10.984 1.629 17.615 3.737" clip-path="url(#clipPath568)"/>
   <path transform="matrix(1.3333 0 0 -1.3333 8560.1 391.3)" d="m0 0c-4.214-1.85-6.721-3.533-8.606-7.705 4.529-2.067 7.571-4.869 10.221-6.311 0.392-0.213 0.034 5.807 2.654 8.882 3.337 3.92 10.065 4.85 10.065 4.85s-3.206 1.594-4.646 1.752c-3.277 0.358-6.659-0.138-9.688-1.468" clip-path="url(#clipPath562)"/>
   <path transform="matrix(1.3333 0 0 -1.3333 8534.9 386.01)" d="m0 0c-2.985-3.542-4.398-6.756-3.317-7.234 2.045-0.907 5.939-1.949 7.926-1.64 0.377 0.059 2.771 12.984 15.813 17.818 4.615 1.71-13.774-1.056-20.422-8.944" clip-path="url(#clipPath560)"/>
   <path transform="matrix(1.3333 0 0 -1.3333 8523.6 392.52)" d="m0 0c0.492-2.062-3.877-1.119-5.119-1.152-1.159-0.032-9.389-1.397-6.493 1.646 0.311 0.328-1.008 6.407 4.074 11.408 4.613 4.539 15.565 8.107 17.744 7.255-2.424-0.97-7.971-4.898-10.232-9.416-1.661-3.314-0.622-7.02 0.026-9.741" clip-path="url(#clipPath566)"/>
  </g>
  <path transform="matrix(1.3333 0 0 -1.3333 8779.3 337.21)" d="m0 0c-4.415 16.76 6.188 35.841 3.08 53.077-2.305 12.78-20.151 33.629-30.117 39.442 6.571-0.246 13.307-1.513 18.519-5.787 7.83-6.417 19.285-28.221 19.59-39.613 0.306-11.391-1.503-22.934-0.94-34.294 0.888-17.905 7.69-34.484 17.061-48.184-8.475 12.484-23.144 19.987-27.193 35.359m-19.157-69.795c1.365-10.869 4.924-21.697 2.677-32.643-2.138-10.414-9.417-19.083-17.802-23.942-8.386-4.859-17.825-6.465-26.972-6.75 9.574 6.56 19.845 14.024 24.014 25.855 2.382 6.761 2.425 14.097 3.05 21.239 1.419 16.219 6.782 33.456 18.516 43.26-2.744-10.382-4.796-16.571-3.483-27.019m-97.333-101.29c-6.758 14.77-22.414 22.939-37.15 19.384-9.231-2.227-17.592-8.442-26.68-11.542-11.2-3.821-23.356-2.624-33.294 3.276 5.506-0.366 5.908 1.401 11.414 1.035 5.863-0.389 12.219-0.634 17.31 3.202 2.761 2.08 4.842 5.155 7.087 7.957 9.841 12.289 25.483 20.08 38.282 14.38 6.458-2.875 11.48-8.816 15.064-15.588 3.584-6.77 5.705-14.54 7.967-22.104m-168.08 20.185c-2.114 1.643-4.182 3.619-5.169 6.354-0.851 2.36-0.329 4.476-1.131 6.86-2.701 8.041-14.13 10.3-15.414 18.824-0.389 2.578 0.273 5.224 1.094 7.677 3.303 9.873 10.253 7.993 17.934 13.679-4.774-7.622-9.805-6.112-10.321-15.487-0.081-1.463-0.029-3.019 0.641-4.248 0.53-0.972 1.386-1.628 2.237-2.211 4.507-3.085 9.983-5.355 12.307-10.818 1.476-3.466 1.355-7.605 2.599-11.194 1.501-4.328 4.882-7.453 8.574-9.25 3.694-1.796 7.226-1.561 11.202-2.181-7.279-5.368-17.465-3.517-24.553 1.995m-34.182 72.815c0.409 5.292-0.188 10.749-2.494 14.951-2.035 3.707-6.024 6.425-9.703 10.903-3.123 3.8-5.197 10.073-2.621 15.025-0.772-3.418 0.813-5.957 2.834-8.165 4.691-5.126 11.155-8.07 14.398-14.712 2.697-5.525 2.637-12.783 1.065-19.361-1.572-6.579-3.659-8.317-6.567-14.3 1.335 5.158 2.679 10.367 3.088 15.659m17.771 57.751c1.426 0.758 2.947 1.205 4.4 1.883 3.127 1.458 6.399 4.244 7.908 7.623-1.567-3.211-1.357-7.304-3.583-10.256-2.545-3.377-6.928-3.576-10.223-5.905-1.305-0.924-2.429-2.182-3.385-3.57-1.113-1.614-2.011-3.418-2.653-5.321-0.773 6.102 2.511 12.877 7.536 15.546m5.73-53.051c1.599 1.428 2.795 3.444 3.959 5.419 2.367 4.019 4.777 8.139 5.994 12.789-0.813-4.435-1.674-9.776-3.216-13.982-1.541-4.206-3.787-8.187-6.833-10.913-1.876-1.68-4.211-2.877-6.312-2.254-1.293 0.383-2.356 1.409-3.32 2.488-1.867 2.09-3.083 5.858-1.795 8.861 2.119-4.601 7.752-5.778 11.523-2.408m169 177.09c-2.243-2.337-7.849-3.554-10.001-1.429 4.502 0.205 6.124 4.168 8.093 9.977 0.768 2.267 2.596 13.825 3.157 16.812 0.264-1.749 5.018-13.252 5.053-15.189 0.077-4.386-5.669-9.512-6.302-10.171m160.58-112.89c3.84 57.98-18.782 110.33-39.599 130.44-4.654 4.497-7.181 10.915-41.514 41.833-2.806-1.659-7.991-6.34-11.063-6.692-0.22-0.026-0.454-0.044-0.64 0.077-0.343 0.222-0.357 0.781-0.331 1.248 0.07 1.269 0.146 2.574 0.617 3.755 0.469 1.179-0.188 0.74 0.912 0.816-6.7 1.05-12.42-3.466-13.96-11.253-0.975-0.483-2.076 0.354-2.386 1.473-0.308 1.118-0.028 2.378 0.353 3.519 1.211 3.633 3.464 6.86 6.302 9.023-5.318-3.284-10.545-6.784-15.668-10.491-1.079-0.782-2.312-1.774-2.924-2.997 0.995 3.605 2.801 6.968 5.197 9.633-6.883-1.921-13.847-3.877-20.227-7.647s-12.218-9.605-15.021-17.191c-0.116 3.538 0.704 8.876 0.022 12.286-0.151 0.758-7.5 7.653-13.96-4.452-4.217-7.904-0.225-14.787-0.225-14.787s-4.181-8.88-4.428-9.505c-0.494-1.253-0.874 9.416-0.874 9.416s-7.501-7.283-9.191-11.98c-2.479-6.888-1.694-17.033-0.472-25.414 1.539-10.564-4.525-13.823-5.965-20.04-0.22-0.949 4.18-5.887 9.874-3.021 5.484 2.761 10.952 8.514 13.39 14.333 2.55 6.088 4.433 10.51 8.959 14.878 4.525 4.368 14.948 4.554 14.948 4.554s8.719-14.787 8.166-23.939c-0.552-9.152-4.791-18.197-11.243-23.99-0.493-3.925 13.476 0.619 14.402 1.522 4.584 4.478 5.306 10.638 7.958 15.956 0.968 1.939 2.898 13.382 2.2 16.918 1.195 1.07 1.566-1.192 3.073-1.112 0.925 0.047 2.739 2.991 3.176 2.083 0.837-1.736-0.769-3.45-0.578-5.183 6.562 3.443 12.232 9.384 15.858 16.612-1.62-6.049-4.936-11.978-9.007-16.361 5.663-0.387 11.619 3.031 14.981 8.597 0.338-6.464-1.972-13.246-6.121-17.967-4.148-4.72-10.053-7.286-15.64-6.796 5.622-2.047 12.052-0.443 17.538 2.823 5.484 3.267 10.207 8.069 14.86 12.818 0.827-12.736-9.246-22.595-19.702-27.387 5.009 1.638 12.233-0.061 17.242 1.578-1.972-6.687-6.688-12.399-12.391-15.01-5.703-2.61-11.708-6.694-16.324-0.752-0.79-1.896 1.96-5.08 5.174-6.434 4.129-1.742 8.98-0.782 13.226 0.612 4.339 1.424 8.54 3.464 12.56 5.944 0 0 17.079 5.581 12.213 1.498-44.017-36.929 9.232-36.929-43.421-40.719-11.265-0.812-17.322 16.293-25.97 21.248-10.058 5.762-17.513-32.54-8.652-39.042 6.999-5.135 19.446-12.466 27.886-13.443 10.343-1.197 32.813-4.16 42.762 0.4-3.702-7.151-10.068-12.516-16.998-14.325-6.932-1.81-14.308-0.034-19.698 4.744 5.772-11.474 17.373-18.446 29.213-17.554-4.858-5.45-9.768-9.194-16.271-10.714-6.048-1.414-9.489-0.252-13.606 4.629-4.117 4.882-13.036 18.723-11.844 13.222 0.579-2.663 5.221-17.237 6.547-19.468 3.86-6.496 11.624-7.787 18.578-8.559-6.811-3.374-14.667-1.422-20.451 3.177s-9.829 11.503-13.331 18.552c-1.22-17.741 23.721-42.073 24.675-42.188-7.091-1.957-14.694-0.19-20.827 3.866-7.323 4.843-12.811 12.574-17.339 20.78-1.878-9.174-0.374-18.956 4.056-26.383 4.428-7.427 11.72-12.39 19.664-13.384-9.895 0.259-20.407 3.656-27.62 10.98-7.214 7.322-10.148 21.008-4.299 30.698-10.004-6.65-16.995-19.354-17.791-32.325-0.311-5.072 0.302-10.257 2.425-14.528 2.124-4.269 5.895-7.512 10.243-7.908-13.441-4.011-69.782 16.725-65.954 39.16 1.053 6.178 21.591 20.065 21.411 23.085-0.477 8.006-26.111 19.647-34.919 11.28-3.207 1.457-21.293-33.428-21.487-39.655-0.551-17.678 12.055-10.753 6.937-28.081-2.053-6.95-57.209-16.045-69.073 36.488-1.986 8.788 13.636 11.368 16.042 20.142-2.778-5.428-7.747-9.39-13.035-10.392 9.691 14.377 16.697 21.585 16.784 39.221 2e-3 0.342 0.079 6.933 0.374 6.991-2.586-6.151-4.512-19.37-9.979-21.948 2.157 3.925 2.989 23.048 1.29 22.784-1.544-7.834-14.923-40.442-22.326-32.955-1.377 7.355-0.316 16.788 4.679 22.168s8.296 10.994 10.336 18.403c1.22 4.431 1.211 7.003 0.724 11.494-0.722 6.685-2.1 5.715-11.2 15.515-0.102-4.037 10.207-13.777 1.395-14.306-0.557 6.722-4.738 5.595-5.023 11.844-1.308-3.958 0.864-11.578-1.671-14.708-2.534-3.132-6.563-5.084-9.819-3.568 0.354 8.872-2.538 9.735 1.274 17.712 5.097 10.662 14.361 16.824 8.747 29.141-1.031 2.259-5.033 6.038-11.104 11.231 4.575-13.161 5.868-12.994 4.306-19.288-1.563-6.294-4.704-12.026-10.288-12.337 1.664 2.901-0.369 6.334-1.484 9.37-2.597 7.077 0.156 15.488 2.885 22.902-3.69-7.862-7.168-16.216-7.432-24.924-0.135-4.502 0.599-8.963 0.114-13.459-0.486-4.495 0.208-7.98-3.539-9.516 1.395 4.199-0.018 7.231-0.375 11.583-0.358 4.352-3.097 8.605-6.906 8.639 2.594-1.802 2.546-6.135 2.212-9.733-0.894-9.644 3.151-9.577 2.255-19.221-3.537-1.563-7.771 0.347-9.236 4.166-1.465 3.818-0.943 12.303-0.943 12.303-2.578-8.179-0.954-14.729 3.017-21.619 2.752-4.775 15.532-5.989 14.018-11.746-4.859 0.883-10.688 1.394-14.375 4.966 3.081-3.76 6.567-6.588 7.678-11.69-10.144-7.955-26.65 10.433-22.597 21.468-2.911-5.105-3.93-15.425-5.068-22.164-1.136-6.738 10.187-7.294 14.122-12.039 1.531-1.845 3.336-3.43 4.505-5.61 1.168-2.18 1.554-5.241 0.152-7.432-0.739-1.154-1.876-1.909-3.049-2.32-4.217-1.474-8.657 1.42-10.689 5.678-2.031 4.256-2.096 9.52-1.535 14.513-3.619-4.579-3.929-11.575-1.994-16.993 1.934-5.418 1.809-12.919 5.693-16.611 3.184-3.027 7.201-5.586 8.942-9.801 5.517-13.354 15.766-19.049 7.215-26.769 30.87-39.851 62.232-62.825 103.28-75.128 42.855-12.842 62.561-16.163 110.56-7.4133 37.213 6.784 88.985 34.675 122.98 90.63 26.628 43.828 28.019 70.699 29.493 92.952" clip-path="url(#clipPath552)" fill="#00274c"/>
 </g>
</svg>
